<svg xmlns="http://www.w3.org/2000/svg" viewBox="-2 -3.15 3.95 6.3">
  <defs>
    <linearGradient id="navy" x1="0" y1="0" x2="1" y2="1">
      <stop offset="0%" stop-color="#1b4c80"/>
      <stop offset="100%" stop-color="#0d2947"/>
    </linearGradient>
    <linearGradient id="cyan" x1="0" y1="0" x2="1" y2="1">
      <stop offset="0%" stop-color="#4fd6e8"/>
      <stop offset="100%" stop-color="#1a97b3"/>
    </linearGradient>
    <linearGradient id="orange" x1="0" y1="0" x2="1" y2="1">
      <stop offset="0%" stop-color="#f79b4a"/>
      <stop offset="100%" stop-color="#d5610f"/>
    </linearGradient>
    <radialGradient id="tealBall" cx="35%" cy="30%">
      <stop offset="0%" stop-color="#8ff0f8"/>
      <stop offset="55%" stop-color="#17a4b6"/>
      <stop offset="100%" stop-color="#0b5f6b"/>
    </radialGradient>
    <radialGradient id="orangeBall" cx="35%" cy="30%">
      <stop offset="0%" stop-color="#ffd08a"/>
      <stop offset="55%" stop-color="#ef8a22"/>
      <stop offset="100%" stop-color="#a8480a"/>
    </radialGradient>
  </defs>
  <path d="M -1.8 -2.5 H 0.5 V -2.86 L 1.22 -2.125 L 0.5 -1.39 V -1.75 H -0.9 V -0.25 H -1.8 Z" fill="url(#navy)"/>
  <path d="M -1.8 0.25 H -0.9 V 1.75 H 0.2 V 2.5 H -1.8 Z" fill="url(#navy)"/>
  <path d="M 0.2 -2.65 A 1.5 1.5 0 0 1 0.2 0.35 L 0.2 -0.2 A 0.95 0.95 0 0 0 0.2 -2.1 Z" fill="url(#cyan)"/>
  <path d="M 0.2 -0.35 A 1.5 1.5 0 0 1 0.2 2.65 L -0.5 2.65 L -0.5 2.97 L -1.28 2.375 L -0.5 1.78 L -0.5 2.1 L 0.2 2.1 A 0.95 0.95 0 0 0 0.2 0.2 Z" fill="url(#orange)"/>
  <g fill="none" stroke="#17a4b6" stroke-width="0.17" stroke-linecap="round">
    <path d="M -0.9 -0.95 H -0.59"/>
    <path d="M -0.11 -0.95 C 0.25 -0.85 0.25 -0.25 0.1 0.15 L 0.1 0.61"/>
    <path d="M -0.14 0.85 H -0.9"/>
    <circle cx="-0.35" cy="-0.95" r="0.24"/>
    <circle cx="0.1" cy="0.85" r="0.24"/>
  </g>
  <circle cx="1.31" cy="-1.668" r="0.44" fill="url(#tealBall)"/>
  <circle cx="1.31" cy="0.632" r="0.44" fill="url(#orangeBall)"/>
</svg>
